<?xml version="1.0" encoding="UTF-8" standalone="no"?>
<svg
   width="1280"
   height="1280"
   version="1.1"
   id="svg63184"
   sodipodi:docname="logo.svg"
   inkscape:version="1.2.1 (9c6d41e410, 2022-07-14)"
   xmlns:inkscape="http://www.inkscape.org/namespaces/inkscape"
   xmlns:sodipodi="http://sodipodi.sourceforge.net/DTD/sodipodi-0.dtd"
   xmlns="http://www.w3.org/2000/svg"
   xmlns:svg="http://www.w3.org/2000/svg">
  <defs
     id="defs63188" />
  <sodipodi:namedview
     id="namedview63186"
     pagecolor="#ffffff"
     bordercolor="#000000"
     borderopacity="0.25"
     inkscape:showpageshadow="2"
     inkscape:pageopacity="0.0"
     inkscape:pagecheckerboard="0"
     inkscape:deskcolor="#d1d1d1"
     showgrid="false"
     inkscape:zoom="0.92476308"
     inkscape:cx="612.58934"
     inkscape:cy="589.34014"
     inkscape:window-width="1920"
     inkscape:window-height="1017"
     inkscape:window-x="-8"
     inkscape:window-y="-8"
     inkscape:window-maximized="1"
     inkscape:current-layer="svg63184"
     inkscape:lockguides="true" />
  <path
     style="display:inline;fill:#65b4c5;stroke:none"
     d="m 675,612 c 17.559,-0.446 39.849,-21.484 55,-29.665 34.018,-18.368 72.308,-32.328 109,-44.33 54.766,-17.914 113.157,-32.023 171,-33.965 35.85,-1.203 71.34,5.871 107,5.96 -30.04,-40.215 -93.66,-34.954 -139,-28.427 C 863.189,498.102 759.281,527.719 675,612 Z"
     id="path31916"
     inkscape:label="1" />
  <path
     style="display:inline;fill:#65b4c5;stroke:none"
     d="M 612,612 C 601.873,586.67 562.912,565.212 540,552.633 466.537,512.302 384.968,490.024 301,490 c -28.631,-0.008 -57.487,0.084 -86,2.72 -8.659,0.8 -25.635,1.466 -26.627,13.282 C 187.393,517.675 202.175,518 210,518 c 24.997,-10e-4 49.963,-3 75,-3 79.274,0 155.929,16.835 229,47.721 33.721,14.253 63.883,35.855 98,49.279 z"
     id="path32888"
     inkscape:label="2" />
  <path
     style="display:inline;fill:#65b4c5;stroke:none"
     d="m 54,607 c 53.091,-12.793 102.929,-28.135 158,-30.922 47.957,-2.427 98.008,5.417 145,14.298 88.841,16.791 179.675,43.654 255,95.624 l 1,-1 C 544.398,597.605 424.487,572.259 320,558.696 c -39.247,-5.095 -79.35,-10.055 -119,-7.038 -29.628,2.254 -59.019,5.694 -88,12.597 -9.998,2.381 -24.3445,3.766 -32.8612,9.707 C 69.9058,581.1 60.3284,596.362 54,607 Z"
     id="path38654"
     inkscape:label="3" />
  <path
     style="display:inline;fill:#65b4c5;stroke:none"
     d="m 693,681 1,1 c 107.004,-80.618 240.094,-109.734 372,-97.783 53.54,4.851 105.22,19.783 158,25.783 -3.93,-8.379 -13.51,-25.524 -21.42,-30.436 -8.93,-5.548 -24.33,-6.147 -34.58,-8.002 -28.16,-5.093 -56.57,-7.891 -85,-10.882 -101.048,-10.631 -223.806,-6.627 -313,48.146 -30.549,18.76 -52.266,46.961 -77,72.174 z"
     id="path39890"
     inkscape:label="6" />
  <path
     style="display:inline;fill:#3b6b82;stroke:none"
     d="m 60,689 c 32.3154,-1.983 65.926,-18.529 98,-24.717 84.625,-16.329 176.59,-20.865 260,3.944 44.246,13.161 88.489,31.037 124,61.251 39.026,33.205 54.316,78.469 114,75.444 38.166,-1.935 57.13,-27.726 83,-51.786 28.45,-26.459 59.678,-50.504 95,-66.979 91.946,-42.885 204.23,-46.849 302,-23.481 35.33,8.443 66.98,23.728 101,35.324 -5.68,-9.992 -10.61,-27.894 -19.32,-35.218 -8.32,-7.003 -23.42,-9.839 -33.68,-12.923 -24.13,-7.248 -48.07,-14.091 -73,-18.104 -100.23,-16.136 -223.946,-12.274 -312,44.32 -30.018,19.293 -59.089,42.188 -85.864,65.743 C 692.908,759.613 672.3,781.338 643,780.941 609.52,780.488 595.764,750.116 576.992,728 561.405,709.635 541.525,695.648 521,683.292 421.184,623.204 296.385,617.474 184,633.858 138.641,640.471 83.5641,644.79 60,689 Z"
     id="path49842"
     inkscape:label="4" />
</svg>
